<svg xmlns="http://www.w3.org/2000/svg" xmlns:xlink="http://www.w3.org/1999/xlink" width="130" zoomAndPan="magnify" viewBox="0 0 97.5 30.000001" height="40" preserveAspectRatio="xMidYMid meet" version="1.0"><defs><filter x="0%" y="0%" width="100%" height="100%" id="ad34c6ebb4"><feColorMatrix values="0 0 0 0 1 0 0 0 0 1 0 0 0 0 1 0 0 0 1 0" color-interpolation-filters="sRGB"/></filter><g/><mask id="f2bbf29e18"><g filter="url(#ad34c6ebb4)"><rect x="-9.75" width="117" fill="#000000" y="-3" height="36.000001" fill-opacity="0.4196"/></g></mask><clipPath id="c8676715c1"><path d="M 1 0 L 24.769531 0 L 24.769531 26.992188 L 1 26.992188 Z M 1 0 " clip-rule="nonzero"/></clipPath><clipPath id="6d7475dd02"><rect x="0" width="25" y="0" height="28"/></clipPath><mask id="8a53b34fcb"><g filter="url(#ad34c6ebb4)"><rect x="-9.75" width="117" fill="#000000" y="-3" height="36.000001" fill-opacity="0.498"/></g></mask><clipPath id="27fa3f5d3b"><path d="M 0.789062 0.222656 L 20.488281 0.222656 L 20.488281 25 L 0.789062 25 Z M 0.789062 0.222656 " clip-rule="nonzero"/></clipPath><clipPath id="a71ff583ae"><rect x="0" width="22" y="0" height="26"/></clipPath></defs><g mask="url(#f2bbf29e18)"><g transform="matrix(1, 0, 0, 1, 33, 0.000000000000005692)"><g clip-path="url(#6d7475dd02)"><g clip-path="url(#c8676715c1)"><path fill="#ffbd59" d="M 24.621094 6.960938 L 22.90625 13.484375 C 22.90625 17.289062 22.90625 21.824219 22.90625 21.824219 C 22.90625 25.054688 20.21875 26.992188 17.621094 26.992188 C 17.621094 26.992188 12.984375 26.992188 12.960938 26.992188 C 12.878906 26.992188 12.625 26.980469 12.550781 26.972656 C 11.007812 26.890625 9.625 26.183594 8.703125 24.992188 C 8.703125 24.992188 8.703125 24.992188 8.703125 24.988281 L 1.746094 16.195312 C 0.921875 15.390625 0.921875 14.128906 1.746094 13.382812 C 2.566406 12.578125 3.859375 12.578125 4.621094 13.382812 L 7.558594 16.828125 L 7.566406 16.851562 C 7.585938 16.84375 7.617188 16.839844 7.640625 16.828125 L 7.640625 15.65625 L 4.75 4.664062 C 4.550781 3.898438 5.027344 3.113281 5.808594 2.917969 C 5.933594 2.890625 6.050781 2.871094 6.164062 2.871094 C 6.824219 2.871094 7.421875 3.308594 7.59375 3.949219 L 8.308594 6.667969 L 9.765625 12.144531 C 9.847656 12.449219 10.164062 12.636719 10.480469 12.5625 C 10.742188 12.492188 10.941406 12.265625 10.921875 12.007812 C 10.796875 11.441406 9.484375 6.402344 9.484375 6.402344 L 8.273438 1.792969 C 8.179688 1.429688 8.238281 1.066406 8.402344 0.761719 C 8.59375 0.417969 8.921875 0.148438 9.332031 0.0429688 C 9.453125 0.0195312 9.570312 0 9.6875 0 C 10.347656 0 10.945312 0.4375 11.117188 1.078125 L 11.75 3.492188 L 13.945312 11.828125 C 14.070312 12.304688 14.507812 12.636719 15.007812 12.636719 C 15.507812 12.636719 15.945312 12.304688 16.070312 11.828125 L 18.59375 2.226562 C 18.636719 2.070312 18.707031 1.917969 18.796875 1.785156 C 19.070312 1.394531 19.527344 1.148438 20.023438 1.148438 C 20.144531 1.148438 20.261719 1.167969 20.386719 1.195312 C 20.945312 1.335938 21.351562 1.773438 21.457031 2.296875 C 21.5 2.503906 21.496094 2.722656 21.4375 2.941406 L 20.535156 6.390625 L 19.988281 8.460938 L 19.09375 11.980469 C 19.035156 12.238281 19.269531 12.46875 19.535156 12.53125 C 19.8125 12.601562 20.125 12.484375 20.203125 12.226562 L 21.667969 6.664062 L 21.777344 6.246094 C 21.921875 5.703125 22.371094 5.304688 22.90625 5.203125 C 23.003906 5.179688 23.105469 5.167969 23.203125 5.167969 C 23.320312 5.167969 23.4375 5.1875 23.5625 5.214844 C 24.34375 5.410156 24.820312 6.195312 24.621094 6.960938 Z M 24.621094 6.960938 " fill-opacity="1" fill-rule="nonzero"/></g></g></g></g><g mask="url(#8a53b34fcb)"><g transform="matrix(1, 0, 0, 1, 35, 1)"><g clip-path="url(#a71ff583ae)"><g clip-path="url(#27fa3f5d3b)"><path fill="#a2ce72" d="M 20.457031 6.976562 C 20.476562 6.890625 20.453125 6.820312 20.386719 6.765625 C 20.316406 6.710938 20.242188 6.703125 20.164062 6.742188 C 19.402344 7.121094 17.660156 8.074219 16.457031 9.433594 C 16.652344 8.609375 16.824219 7.734375 16.972656 6.808594 C 17.695312 5.550781 18.601562 3.144531 17.195312 0.34375 C 17.15625 0.265625 17.089844 0.222656 17 0.226562 C 16.90625 0.226562 16.84375 0.269531 16.808594 0.355469 C 16.292969 1.527344 14.941406 5.074219 16.148438 7.414062 C 16.035156 8.035156 15.910156 8.640625 15.769531 9.230469 C 15.488281 6.898438 13.949219 5.410156 13.949219 5.410156 C 12.703125 7.65625 14.179688 11.035156 14.835938 12.332031 C 14.371094 13.609375 13.78125 14.828125 13.070312 15.988281 C 13.863281 13.109375 12.25 10.761719 12.25 10.761719 C 10.539062 12.761719 11.390625 16.496094 11.765625 17.8125 C 10.6875 19.136719 9.402344 20.214844 7.914062 21.054688 C 9.859375 19.160156 9.878906 16.617188 9.878906 16.617188 C 7.335938 17.277344 5.894531 20.8125 5.441406 22.117188 C 3.0625 22.859375 1.234375 22.691406 1.214844 22.691406 C 1.117188 22.679688 1.027344 22.707031 0.953125 22.769531 C 0.875 22.832031 0.832031 22.910156 0.824219 23.007812 C 0.8125 23.109375 0.839844 23.195312 0.902344 23.269531 C 0.964844 23.347656 1.042969 23.390625 1.144531 23.398438 C 1.222656 23.410156 2.351562 23.511719 3.988281 23.210938 C 4.660156 23.78125 6.503906 25.03125 8.945312 24.097656 C 9.003906 24.074219 9.039062 24.027344 9.042969 23.964844 C 9.050781 23.898438 9.023438 23.851562 8.964844 23.816406 C 8.441406 23.523438 7.222656 22.90625 5.949219 22.703125 C 6.703125 22.449219 7.433594 22.128906 8.132812 21.75 C 8.492188 21.554688 8.859375 21.332031 9.234375 21.078125 C 10.460938 21.316406 13.332031 21.523438 15.554688 18.9375 C 15.613281 18.871094 15.621094 18.796875 15.585938 18.71875 C 15.550781 18.636719 15.488281 18.597656 15.402344 18.59375 C 14.675781 18.582031 13.121094 18.621094 11.625 19.042969 C 12.242188 18.390625 12.804688 17.6875 13.304688 16.941406 C 14.480469 16.996094 17.230469 16.796875 18.960938 14.039062 C 19.003906 13.96875 19.003906 13.898438 18.960938 13.828125 C 18.914062 13.757812 18.851562 13.726562 18.769531 13.738281 C 17.921875 13.855469 15.890625 14.214844 14.351562 15.1875 C 14.925781 14.089844 15.40625 12.953125 15.796875 11.773438 C 16.980469 11.433594 19.660156 10.3125 20.457031 6.976562 Z M 20.457031 6.976562 " fill-opacity="1" fill-rule="nonzero"/></g></g></g></g><g fill="#ffffff" fill-opacity="1"><g transform="translate(3.131667, 19.305047)"><g><path d="M 0.265625 2.859375 C -0.015625 2.859375 -0.257812 2.84375 -0.46875 2.8125 C -0.675781 2.789062 -0.859375 2.765625 -1.015625 2.734375 L -1.015625 0.8125 C -0.878906 0.84375 -0.734375 0.875 -0.578125 0.90625 C -0.429688 0.9375 -0.269531 0.953125 -0.09375 0.953125 C 0.195312 0.953125 0.421875 0.890625 0.578125 0.765625 C 0.742188 0.640625 0.859375 0.457031 0.921875 0.21875 C 0.992188 -0.0195312 1.03125 -0.316406 1.03125 -0.671875 L 1.03125 -9.109375 L 3.5 -9.109375 L 3.5 -0.890625 C 3.5 0.0234375 3.363281 0.753906 3.09375 1.296875 C 2.820312 1.847656 2.441406 2.242188 1.953125 2.484375 C 1.460938 2.734375 0.898438 2.859375 0.265625 2.859375 Z M 0.265625 2.859375 "/></g></g></g><g fill="#ffffff" fill-opacity="1"><g transform="translate(7.618185, 19.305047)"><g><path d="M 7.703125 -7.046875 L 7.703125 0 L 5.859375 0 L 5.5625 -0.875 L 5.421875 -0.875 C 5.273438 -0.632812 5.085938 -0.441406 4.859375 -0.296875 C 4.640625 -0.148438 4.394531 -0.046875 4.125 0.015625 C 3.851562 0.0859375 3.570312 0.125 3.28125 0.125 C 2.820312 0.125 2.40625 0.0351562 2.03125 -0.140625 C 1.664062 -0.316406 1.375 -0.597656 1.15625 -0.984375 C 0.9375 -1.367188 0.828125 -1.859375 0.828125 -2.453125 L 0.828125 -7.046875 L 3.265625 -7.046875 L 3.265625 -3.203125 C 3.265625 -2.742188 3.328125 -2.394531 3.453125 -2.15625 C 3.585938 -1.914062 3.804688 -1.796875 4.109375 -1.796875 C 4.410156 -1.796875 4.644531 -1.878906 4.8125 -2.046875 C 4.976562 -2.210938 5.09375 -2.457031 5.15625 -2.78125 C 5.226562 -3.101562 5.265625 -3.5 5.265625 -3.96875 L 5.265625 -7.046875 Z M 7.703125 -7.046875 "/></g></g></g><g fill="#ffffff" fill-opacity="1"><g transform="translate(16.155636, 19.305047)"><g><path d="M 6.078125 -2.171875 C 6.078125 -1.722656 5.976562 -1.320312 5.78125 -0.96875 C 5.582031 -0.625 5.265625 -0.351562 4.828125 -0.15625 C 4.390625 0.03125 3.8125 0.125 3.09375 0.125 C 2.59375 0.125 2.144531 0.0976562 1.75 0.046875 C 1.351562 -0.00390625 0.953125 -0.109375 0.546875 -0.265625 L 0.546875 -2.21875 C 0.992188 -2.007812 1.445312 -1.859375 1.90625 -1.765625 C 2.363281 -1.679688 2.726562 -1.640625 3 -1.640625 C 3.269531 -1.640625 3.46875 -1.671875 3.59375 -1.734375 C 3.71875 -1.796875 3.78125 -1.882812 3.78125 -2 C 3.78125 -2.101562 3.738281 -2.191406 3.65625 -2.265625 C 3.570312 -2.335938 3.421875 -2.421875 3.203125 -2.515625 C 2.984375 -2.617188 2.675781 -2.75 2.28125 -2.90625 C 1.894531 -3.070312 1.570312 -3.25 1.3125 -3.4375 C 1.050781 -3.625 0.851562 -3.847656 0.71875 -4.109375 C 0.59375 -4.378906 0.53125 -4.707031 0.53125 -5.09375 C 0.53125 -5.78125 0.796875 -6.296875 1.328125 -6.640625 C 1.859375 -6.992188 2.5625 -7.171875 3.4375 -7.171875 C 3.90625 -7.171875 4.34375 -7.117188 4.75 -7.015625 C 5.164062 -6.921875 5.59375 -6.773438 6.03125 -6.578125 L 5.359375 -5.015625 C 5.015625 -5.171875 4.660156 -5.296875 4.296875 -5.390625 C 3.941406 -5.484375 3.660156 -5.53125 3.453125 -5.53125 C 3.265625 -5.53125 3.117188 -5.503906 3.015625 -5.453125 C 2.910156 -5.410156 2.859375 -5.335938 2.859375 -5.234375 C 2.859375 -5.148438 2.894531 -5.070312 2.96875 -5 C 3.039062 -4.9375 3.175781 -4.863281 3.375 -4.78125 C 3.582031 -4.695312 3.878906 -4.570312 4.265625 -4.40625 C 4.679688 -4.25 5.019531 -4.070312 5.28125 -3.875 C 5.550781 -3.6875 5.75 -3.457031 5.875 -3.1875 C 6.007812 -2.925781 6.078125 -2.585938 6.078125 -2.171875 Z M 6.078125 -2.171875 "/></g></g></g><g fill="#ffffff" fill-opacity="1"><g transform="translate(22.745404, 19.305047)"><g><path d="M 4.296875 -1.796875 C 4.515625 -1.796875 4.710938 -1.816406 4.890625 -1.859375 C 5.078125 -1.910156 5.269531 -1.972656 5.46875 -2.046875 L 5.46875 -0.265625 C 5.207031 -0.148438 4.925781 -0.0546875 4.625 0.015625 C 4.332031 0.0859375 3.957031 0.125 3.5 0.125 C 3.039062 0.125 2.632812 0.0507812 2.28125 -0.09375 C 1.9375 -0.238281 1.664062 -0.488281 1.46875 -0.84375 C 1.28125 -1.195312 1.1875 -1.691406 1.1875 -2.328125 L 1.1875 -5.234375 L 0.328125 -5.234375 L 0.328125 -6.21875 L 1.40625 -6.984375 L 2.046875 -8.46875 L 3.640625 -8.46875 L 3.640625 -7.046875 L 5.359375 -7.046875 L 5.359375 -5.234375 L 3.640625 -5.234375 L 3.640625 -2.484375 C 3.640625 -2.253906 3.695312 -2.082031 3.8125 -1.96875 C 3.925781 -1.851562 4.085938 -1.796875 4.296875 -1.796875 Z M 4.296875 -1.796875 "/></g></g></g><g fill="#ffffff" fill-opacity="1"><g transform="translate(28.607124, 19.305047)"><g><path d="M 8.84375 -9.109375 L 5.859375 0 L 2.96875 0 L 0 -9.109375 L 2.765625 -9.109375 L 4 -4.484375 C 4.050781 -4.316406 4.101562 -4.09375 4.15625 -3.8125 C 4.21875 -3.539062 4.273438 -3.269531 4.328125 -3 C 4.378906 -2.738281 4.410156 -2.519531 4.421875 -2.34375 C 4.441406 -2.519531 4.472656 -2.738281 4.515625 -3 C 4.566406 -3.269531 4.617188 -3.535156 4.671875 -3.796875 C 4.722656 -4.066406 4.773438 -4.289062 4.828125 -4.46875 L 6.09375 -9.109375 Z M 8.84375 -9.109375 "/></g></g></g><g fill="#ffffff" fill-opacity="1"><g transform="translate(37.449484, 19.305047)"><g><path d="M 7.578125 -3.546875 C 7.578125 -2.953125 7.492188 -2.425781 7.328125 -1.96875 C 7.171875 -1.507812 6.9375 -1.125 6.625 -0.8125 C 6.320312 -0.507812 5.953125 -0.273438 5.515625 -0.109375 C 5.078125 0.046875 4.585938 0.125 4.046875 0.125 C 3.535156 0.125 3.066406 0.046875 2.640625 -0.109375 C 2.210938 -0.273438 1.835938 -0.507812 1.515625 -0.8125 C 1.203125 -1.125 0.957031 -1.507812 0.78125 -1.96875 C 0.613281 -2.425781 0.53125 -2.953125 0.53125 -3.546875 C 0.53125 -4.328125 0.671875 -4.984375 0.953125 -5.515625 C 1.242188 -6.054688 1.648438 -6.46875 2.171875 -6.75 C 2.703125 -7.03125 3.335938 -7.171875 4.078125 -7.171875 C 4.753906 -7.171875 5.351562 -7.03125 5.875 -6.75 C 6.40625 -6.46875 6.820312 -6.054688 7.125 -5.515625 C 7.425781 -4.984375 7.578125 -4.328125 7.578125 -3.546875 Z M 3 -3.546875 C 3 -3.140625 3.035156 -2.796875 3.109375 -2.515625 C 3.179688 -2.242188 3.296875 -2.035156 3.453125 -1.890625 C 3.609375 -1.753906 3.8125 -1.6875 4.0625 -1.6875 C 4.3125 -1.6875 4.507812 -1.753906 4.65625 -1.890625 C 4.8125 -2.035156 4.921875 -2.242188 4.984375 -2.515625 C 5.054688 -2.796875 5.09375 -3.140625 5.09375 -3.546875 C 5.09375 -3.941406 5.054688 -4.273438 4.984375 -4.546875 C 4.921875 -4.816406 4.8125 -5.019531 4.65625 -5.15625 C 4.507812 -5.289062 4.304688 -5.359375 4.046875 -5.359375 C 3.679688 -5.359375 3.414062 -5.203125 3.25 -4.890625 C 3.082031 -4.585938 3 -4.140625 3 -3.546875 Z M 3 -3.546875 "/></g></g></g><g fill="#ffffff" fill-opacity="1"><g transform="translate(45.570019, 19.305047)"><g><path d="M 3.28125 0 L 0.84375 0 L 0.84375 -9.6875 L 3.28125 -9.6875 Z M 3.28125 0 "/></g></g></g><g fill="#ffffff" fill-opacity="1"><g transform="translate(49.689402, 19.305047)"><g><path d="M 7.703125 -7.046875 L 7.703125 0 L 5.859375 0 L 5.5625 -0.875 L 5.421875 -0.875 C 5.273438 -0.632812 5.085938 -0.441406 4.859375 -0.296875 C 4.640625 -0.148438 4.394531 -0.046875 4.125 0.015625 C 3.851562 0.0859375 3.570312 0.125 3.28125 0.125 C 2.820312 0.125 2.40625 0.0351562 2.03125 -0.140625 C 1.664062 -0.316406 1.375 -0.597656 1.15625 -0.984375 C 0.9375 -1.367188 0.828125 -1.859375 0.828125 -2.453125 L 0.828125 -7.046875 L 3.265625 -7.046875 L 3.265625 -3.203125 C 3.265625 -2.742188 3.328125 -2.394531 3.453125 -2.15625 C 3.585938 -1.914062 3.804688 -1.796875 4.109375 -1.796875 C 4.410156 -1.796875 4.644531 -1.878906 4.8125 -2.046875 C 4.976562 -2.210938 5.09375 -2.457031 5.15625 -2.78125 C 5.226562 -3.101562 5.265625 -3.5 5.265625 -3.96875 L 5.265625 -7.046875 Z M 7.703125 -7.046875 "/></g></g></g><g fill="#ffffff" fill-opacity="1"><g transform="translate(58.226853, 19.305047)"><g><path d="M 5.25 -7.171875 C 5.976562 -7.171875 6.570312 -6.96875 7.03125 -6.5625 C 7.488281 -6.15625 7.71875 -5.5 7.71875 -4.59375 L 7.71875 0 L 5.296875 0 L 5.296875 -3.84375 C 5.296875 -4.3125 5.226562 -4.664062 5.09375 -4.90625 C 4.957031 -5.144531 4.738281 -5.265625 4.4375 -5.265625 C 3.976562 -5.265625 3.671875 -5.078125 3.515625 -4.703125 C 3.359375 -4.328125 3.28125 -3.789062 3.28125 -3.09375 L 3.28125 0 L 0.84375 0 L 0.84375 -7.046875 L 2.671875 -7.046875 L 3 -6.125 L 3.09375 -6.125 C 3.25 -6.34375 3.429688 -6.53125 3.640625 -6.6875 C 3.847656 -6.84375 4.082031 -6.960938 4.34375 -7.046875 C 4.613281 -7.128906 4.914062 -7.171875 5.25 -7.171875 Z M 5.25 -7.171875 "/></g></g></g><g fill="#ffffff" fill-opacity="1"><g transform="translate(66.764305, 19.305047)"><g><path d="M 4.296875 -1.796875 C 4.515625 -1.796875 4.710938 -1.816406 4.890625 -1.859375 C 5.078125 -1.910156 5.269531 -1.972656 5.46875 -2.046875 L 5.46875 -0.265625 C 5.207031 -0.148438 4.925781 -0.0546875 4.625 0.015625 C 4.332031 0.0859375 3.957031 0.125 3.5 0.125 C 3.039062 0.125 2.632812 0.0507812 2.28125 -0.09375 C 1.9375 -0.238281 1.664062 -0.488281 1.46875 -0.84375 C 1.28125 -1.195312 1.1875 -1.691406 1.1875 -2.328125 L 1.1875 -5.234375 L 0.328125 -5.234375 L 0.328125 -6.21875 L 1.40625 -6.984375 L 2.046875 -8.46875 L 3.640625 -8.46875 L 3.640625 -7.046875 L 5.359375 -7.046875 L 5.359375 -5.234375 L 3.640625 -5.234375 L 3.640625 -2.484375 C 3.640625 -2.253906 3.695312 -2.082031 3.8125 -1.96875 C 3.925781 -1.851562 4.085938 -1.796875 4.296875 -1.796875 Z M 4.296875 -1.796875 "/></g></g></g><g fill="#ffffff" fill-opacity="1"><g transform="translate(72.626025, 19.305047)"><g><path d="M 4.015625 -7.171875 C 4.703125 -7.171875 5.289062 -7.050781 5.78125 -6.8125 C 6.28125 -6.582031 6.664062 -6.226562 6.9375 -5.75 C 7.207031 -5.269531 7.34375 -4.671875 7.34375 -3.953125 L 7.34375 -2.875 L 3 -2.875 C 3.019531 -2.5 3.15625 -2.191406 3.40625 -1.953125 C 3.664062 -1.722656 4.039062 -1.609375 4.53125 -1.609375 C 4.976562 -1.609375 5.382812 -1.648438 5.75 -1.734375 C 6.113281 -1.828125 6.492188 -1.960938 6.890625 -2.140625 L 6.890625 -0.390625 C 6.546875 -0.210938 6.171875 -0.0820312 5.765625 0 C 5.367188 0.0820312 4.863281 0.125 4.25 0.125 C 3.539062 0.125 2.90625 0 2.34375 -0.25 C 1.78125 -0.507812 1.335938 -0.90625 1.015625 -1.4375 C 0.691406 -1.96875 0.53125 -2.648438 0.53125 -3.484375 C 0.53125 -4.328125 0.675781 -5.019531 0.96875 -5.5625 C 1.257812 -6.113281 1.664062 -6.519531 2.1875 -6.78125 C 2.707031 -7.039062 3.316406 -7.171875 4.015625 -7.171875 Z M 4.109375 -5.515625 C 3.816406 -5.515625 3.570312 -5.425781 3.375 -5.25 C 3.1875 -5.070312 3.078125 -4.789062 3.046875 -4.40625 L 5.140625 -4.40625 C 5.128906 -4.613281 5.082031 -4.800781 5 -4.96875 C 4.925781 -5.132812 4.8125 -5.265625 4.65625 -5.359375 C 4.507812 -5.460938 4.328125 -5.515625 4.109375 -5.515625 Z M 4.109375 -5.515625 "/></g></g></g><g fill="#ffffff" fill-opacity="1"><g transform="translate(80.503877, 19.305047)"><g><path d="M 4.015625 -7.171875 C 4.703125 -7.171875 5.289062 -7.050781 5.78125 -6.8125 C 6.28125 -6.582031 6.664062 -6.226562 6.9375 -5.75 C 7.207031 -5.269531 7.34375 -4.671875 7.34375 -3.953125 L 7.34375 -2.875 L 3 -2.875 C 3.019531 -2.5 3.15625 -2.191406 3.40625 -1.953125 C 3.664062 -1.722656 4.039062 -1.609375 4.53125 -1.609375 C 4.976562 -1.609375 5.382812 -1.648438 5.75 -1.734375 C 6.113281 -1.828125 6.492188 -1.960938 6.890625 -2.140625 L 6.890625 -0.390625 C 6.546875 -0.210938 6.171875 -0.0820312 5.765625 0 C 5.367188 0.0820312 4.863281 0.125 4.25 0.125 C 3.539062 0.125 2.90625 0 2.34375 -0.25 C 1.78125 -0.507812 1.335938 -0.90625 1.015625 -1.4375 C 0.691406 -1.96875 0.53125 -2.648438 0.53125 -3.484375 C 0.53125 -4.328125 0.675781 -5.019531 0.96875 -5.5625 C 1.257812 -6.113281 1.664062 -6.519531 2.1875 -6.78125 C 2.707031 -7.039062 3.316406 -7.171875 4.015625 -7.171875 Z M 4.109375 -5.515625 C 3.816406 -5.515625 3.570312 -5.425781 3.375 -5.25 C 3.1875 -5.070312 3.078125 -4.789062 3.046875 -4.40625 L 5.140625 -4.40625 C 5.128906 -4.613281 5.082031 -4.800781 5 -4.96875 C 4.925781 -5.132812 4.8125 -5.265625 4.65625 -5.359375 C 4.507812 -5.460938 4.328125 -5.515625 4.109375 -5.515625 Z M 4.109375 -5.515625 "/></g></g></g><g fill="#ffffff" fill-opacity="1"><g transform="translate(88.38173, 19.305047)"><g><path d="M 5.09375 -7.171875 C 5.226562 -7.171875 5.367188 -7.160156 5.515625 -7.140625 C 5.660156 -7.128906 5.769531 -7.117188 5.84375 -7.109375 L 5.625 -4.8125 C 5.539062 -4.832031 5.4375 -4.847656 5.3125 -4.859375 C 5.1875 -4.867188 5.015625 -4.875 4.796875 -4.875 C 4.640625 -4.875 4.472656 -4.859375 4.296875 -4.828125 C 4.128906 -4.804688 3.96875 -4.75 3.8125 -4.65625 C 3.65625 -4.5625 3.523438 -4.421875 3.421875 -4.234375 C 3.328125 -4.046875 3.28125 -3.789062 3.28125 -3.46875 L 3.28125 0 L 0.84375 0 L 0.84375 -7.046875 L 2.65625 -7.046875 L 3.03125 -5.921875 L 3.15625 -5.921875 C 3.28125 -6.160156 3.441406 -6.375 3.640625 -6.5625 C 3.847656 -6.75 4.078125 -6.894531 4.328125 -7 C 4.578125 -7.113281 4.832031 -7.171875 5.09375 -7.171875 Z M 5.09375 -7.171875 "/></g></g></g></svg>