<svg xmlns="http://www.w3.org/2000/svg" xmlns:xlink="http://www.w3.org/1999/xlink" width="200" zoomAndPan="magnify" viewBox="0 0 150 44.999999" height="60" preserveAspectRatio="xMidYMid meet" version="1.0"><defs><filter x="0%" y="0%" width="100%" height="100%" id="70bdd2946f"><feColorMatrix values="0 0 0 0 1 0 0 0 0 1 0 0 0 0 1 0 0 0 1 0" color-interpolation-filters="sRGB"/></filter><g/><mask id="67f3feb674"><g filter="url(#70bdd2946f)"><rect x="-15" width="180" fill="#000000" y="-4.5" height="53.999999" fill-opacity="0.8"/></g></mask><clipPath id="6fb3548631"><path d="M 1.035156 0 L 37.558594 0 L 37.558594 42 L 1.035156 42 Z M 1.035156 0 " clip-rule="nonzero"/></clipPath><clipPath id="0e24ab149d"><rect x="0" width="38" y="0" height="42"/></clipPath><mask id="cf7c7b62ad"><g filter="url(#70bdd2946f)"><rect x="-15" width="180" fill="#000000" y="-4.5" height="53.999999" fill-opacity="0.8863"/></g></mask><clipPath id="ecc73d66d8"><path d="M 1.015625 0.886719 L 31.765625 0.886719 L 31.765625 39 L 1.015625 39 Z M 1.015625 0.886719 " clip-rule="nonzero"/></clipPath><clipPath id="b607a58b4e"><rect x="0" width="32" y="0" height="41"/></clipPath></defs><g mask="url(#67f3feb674)"><g transform="matrix(1, 0, 0, 1, 51, 0)"><g clip-path="url(#0e24ab149d)"><g clip-path="url(#6fb3548631)"><path fill="#ffbd59" d="M 37.308594 10.832031 L 34.691406 20.984375 C 34.691406 26.898438 34.691406 33.957031 34.691406 33.957031 C 34.691406 38.988281 30.585938 42 26.625 42 C 26.625 42 19.546875 42 19.511719 42 C 19.382812 42 18.996094 41.984375 18.886719 41.972656 C 16.53125 41.839844 14.417969 40.738281 13.007812 38.890625 C 13.007812 38.890625 13.007812 38.890625 13.007812 38.882812 L 2.390625 25.199219 C 1.136719 23.949219 1.136719 21.984375 2.390625 20.820312 C 3.644531 19.570312 5.617188 19.570312 6.78125 20.820312 L 11.261719 26.183594 L 11.273438 26.21875 C 11.308594 26.207031 11.355469 26.199219 11.386719 26.183594 L 11.386719 24.363281 L 6.976562 7.257812 C 6.671875 6.066406 7.402344 4.84375 8.589844 4.539062 C 8.78125 4.496094 8.960938 4.46875 9.136719 4.46875 C 10.140625 4.46875 11.054688 5.148438 11.320312 6.148438 L 12.410156 10.375 L 14.632812 18.898438 C 14.761719 19.375 15.242188 19.660156 15.726562 19.542969 C 16.121094 19.4375 16.429688 19.085938 16.398438 18.6875 C 16.207031 17.800781 14.203125 9.960938 14.203125 9.960938 L 12.355469 2.789062 C 12.214844 2.222656 12.300781 1.660156 12.554688 1.1875 C 12.839844 0.652344 13.34375 0.234375 13.96875 0.0703125 C 14.15625 0.0273438 14.335938 0 14.515625 0 C 15.519531 0 16.433594 0.679688 16.695312 1.679688 L 17.660156 5.429688 L 21.011719 18.40625 C 21.203125 19.144531 21.871094 19.660156 22.636719 19.660156 C 23.398438 19.660156 24.070312 19.144531 24.257812 18.402344 L 28.113281 3.464844 C 28.175781 3.21875 28.285156 2.984375 28.417969 2.777344 C 28.835938 2.171875 29.535156 1.789062 30.289062 1.789062 C 30.476562 1.789062 30.65625 1.816406 30.847656 1.855469 C 31.695312 2.082031 32.316406 2.761719 32.476562 3.574219 C 32.546875 3.894531 32.539062 4.234375 32.449219 4.578125 L 31.070312 9.945312 L 30.238281 13.164062 L 28.875 18.640625 C 28.78125 19.046875 29.140625 19.402344 29.546875 19.5 C 29.96875 19.605469 30.445312 19.425781 30.566406 19.023438 L 32.800781 10.367188 L 32.96875 9.722656 C 33.191406 8.875 33.875 8.253906 34.691406 8.09375 C 34.84375 8.058594 34.996094 8.042969 35.148438 8.042969 C 35.328125 8.042969 35.503906 8.070312 35.695312 8.113281 C 36.882812 8.417969 37.613281 9.640625 37.308594 10.832031 Z M 37.308594 10.832031 " fill-opacity="1" fill-rule="nonzero"/></g></g></g></g><g mask="url(#cf7c7b62ad)"><g transform="matrix(1, 0, 0, 1, 54, 1)"><g clip-path="url(#b607a58b4e)"><g clip-path="url(#ecc73d66d8)"><path fill="#a2ce72" d="M 31.722656 11.300781 C 31.753906 11.167969 31.714844 11.0625 31.605469 10.976562 C 31.5 10.894531 31.386719 10.878906 31.261719 10.9375 C 30.074219 11.523438 27.355469 12.992188 25.472656 15.089844 C 25.78125 13.816406 26.046875 12.464844 26.28125 11.039062 C 27.410156 9.101562 28.820312 5.394531 26.628906 1.074219 C 26.5625 0.949219 26.460938 0.886719 26.320312 0.890625 C 26.175781 0.894531 26.078125 0.960938 26.019531 1.085938 C 25.21875 2.894531 23.105469 8.363281 24.988281 11.972656 C 24.816406 12.933594 24.621094 13.867188 24.402344 14.777344 C 23.960938 11.179688 21.558594 8.886719 21.558594 8.886719 C 19.613281 12.351562 21.917969 17.5625 22.945312 19.558594 C 22.214844 21.527344 21.296875 23.410156 20.1875 25.199219 C 21.421875 20.757812 18.902344 17.136719 18.902344 17.136719 C 16.234375 20.21875 17.566406 25.980469 18.152344 28.011719 C 16.464844 30.050781 14.457031 31.714844 12.136719 33.007812 C 15.171875 30.089844 15.199219 26.167969 15.199219 26.167969 C 11.234375 27.1875 8.984375 32.632812 8.277344 34.644531 C 4.558594 35.792969 1.710938 35.535156 1.675781 35.535156 C 1.523438 35.519531 1.386719 35.558594 1.265625 35.65625 C 1.148438 35.75 1.078125 35.875 1.0625 36.023438 C 1.046875 36.175781 1.089844 36.3125 1.1875 36.429688 C 1.285156 36.546875 1.410156 36.613281 1.5625 36.628906 C 1.6875 36.640625 3.449219 36.800781 6.007812 36.339844 C 7.054688 37.214844 9.929688 39.140625 13.746094 37.699219 C 13.839844 37.664062 13.890625 37.597656 13.898438 37.496094 C 13.90625 37.394531 13.867188 37.320312 13.777344 37.269531 C 12.960938 36.820312 11.054688 35.867188 9.070312 35.554688 C 10.246094 35.160156 11.382812 34.667969 12.476562 34.082031 C 13.035156 33.777344 13.613281 33.433594 14.199219 33.042969 C 16.113281 33.414062 20.59375 33.730469 24.066406 29.746094 C 24.15625 29.644531 24.171875 29.53125 24.117188 29.40625 C 24.058594 29.28125 23.964844 29.21875 23.828125 29.214844 C 22.695312 29.199219 20.265625 29.257812 17.933594 29.90625 C 18.894531 28.898438 19.769531 27.820312 20.550781 26.667969 C 22.386719 26.753906 26.679688 26.445312 29.382812 22.191406 C 29.453125 22.082031 29.449219 21.972656 29.382812 21.863281 C 29.3125 21.753906 29.210938 21.710938 29.082031 21.726562 C 27.757812 21.90625 24.589844 22.464844 22.1875 23.964844 C 23.085938 22.269531 23.835938 20.515625 24.441406 18.699219 C 26.289062 18.175781 30.476562 16.445312 31.722656 11.300781 Z M 31.722656 11.300781 " fill-opacity="1" fill-rule="nonzero"/></g></g></g></g><g fill="#000000" fill-opacity="1"><g transform="translate(4.652345, 29.770153)"><g><path d="M 0.40625 4.40625 C -0.0195312 4.40625 -0.394531 4.382812 -0.71875 4.34375 C -1.039062 4.300781 -1.320312 4.253906 -1.5625 4.203125 L -1.5625 1.25 C -1.351562 1.289062 -1.132812 1.332031 -0.90625 1.375 C -0.675781 1.425781 -0.425781 1.453125 -0.15625 1.453125 C 0.300781 1.453125 0.65625 1.359375 0.90625 1.171875 C 1.15625 0.992188 1.332031 0.71875 1.4375 0.34375 C 1.539062 -0.03125 1.59375 -0.492188 1.59375 -1.046875 L 1.59375 -14.03125 L 5.40625 -14.03125 L 5.40625 -1.375 C 5.40625 0.03125 5.191406 1.15625 4.765625 2 C 4.347656 2.84375 3.765625 3.453125 3.015625 3.828125 C 2.265625 4.210938 1.394531 4.40625 0.40625 4.40625 Z M 0.40625 4.40625 "/></g></g></g><g fill="#000000" fill-opacity="1"><g transform="translate(11.570968, 29.770153)"><g><path d="M 11.875 -10.875 L 11.875 0 L 9.046875 0 L 8.578125 -1.359375 L 8.34375 -1.359375 C 8.125 -0.992188 7.84375 -0.695312 7.5 -0.46875 C 7.15625 -0.238281 6.773438 -0.0703125 6.359375 0.03125 C 5.941406 0.132812 5.507812 0.1875 5.0625 0.1875 C 4.351562 0.1875 3.710938 0.0507812 3.140625 -0.21875 C 2.566406 -0.5 2.113281 -0.929688 1.78125 -1.515625 C 1.445312 -2.109375 1.28125 -2.867188 1.28125 -3.796875 L 1.28125 -10.875 L 5.03125 -10.875 L 5.03125 -4.9375 C 5.03125 -4.226562 5.128906 -3.691406 5.328125 -3.328125 C 5.535156 -2.960938 5.867188 -2.78125 6.328125 -2.78125 C 6.796875 -2.78125 7.160156 -2.90625 7.421875 -3.15625 C 7.679688 -3.414062 7.863281 -3.789062 7.96875 -4.28125 C 8.070312 -4.78125 8.125 -5.390625 8.125 -6.109375 L 8.125 -10.875 Z M 11.875 -10.875 "/></g></g></g><g fill="#000000" fill-opacity="1"><g transform="translate(24.736502, 29.770153)"><g><path d="M 9.375 -3.34375 C 9.375 -2.644531 9.21875 -2.03125 8.90625 -1.5 C 8.601562 -0.96875 8.113281 -0.550781 7.4375 -0.25 C 6.769531 0.0390625 5.882812 0.1875 4.78125 0.1875 C 4.007812 0.1875 3.316406 0.144531 2.703125 0.0625 C 2.085938 -0.0195312 1.46875 -0.175781 0.84375 -0.40625 L 0.84375 -3.421875 C 1.53125 -3.109375 2.226562 -2.878906 2.9375 -2.734375 C 3.644531 -2.597656 4.203125 -2.53125 4.609375 -2.53125 C 5.035156 -2.53125 5.34375 -2.578125 5.53125 -2.671875 C 5.726562 -2.765625 5.828125 -2.90625 5.828125 -3.09375 C 5.828125 -3.25 5.757812 -3.382812 5.625 -3.5 C 5.5 -3.613281 5.269531 -3.742188 4.9375 -3.890625 C 4.601562 -4.035156 4.128906 -4.234375 3.515625 -4.484375 C 2.921875 -4.734375 2.421875 -5.003906 2.015625 -5.296875 C 1.617188 -5.585938 1.320312 -5.9375 1.125 -6.34375 C 0.925781 -6.757812 0.828125 -7.265625 0.828125 -7.859375 C 0.828125 -8.921875 1.234375 -9.71875 2.046875 -10.25 C 2.867188 -10.789062 3.957031 -11.0625 5.3125 -11.0625 C 6.019531 -11.0625 6.691406 -10.984375 7.328125 -10.828125 C 7.960938 -10.671875 8.617188 -10.441406 9.296875 -10.140625 L 8.265625 -7.71875 C 7.734375 -7.96875 7.191406 -8.164062 6.640625 -8.3125 C 6.085938 -8.457031 5.648438 -8.53125 5.328125 -8.53125 C 5.035156 -8.53125 4.804688 -8.488281 4.640625 -8.40625 C 4.484375 -8.332031 4.40625 -8.222656 4.40625 -8.078125 C 4.40625 -7.941406 4.457031 -7.820312 4.5625 -7.71875 C 4.675781 -7.625 4.890625 -7.507812 5.203125 -7.375 C 5.523438 -7.238281 5.984375 -7.050781 6.578125 -6.8125 C 7.210938 -6.550781 7.734375 -6.273438 8.140625 -5.984375 C 8.554688 -5.691406 8.863281 -5.335938 9.0625 -4.921875 C 9.269531 -4.503906 9.375 -3.976562 9.375 -3.34375 Z M 9.375 -3.34375 "/></g></g></g><g fill="#000000" fill-opacity="1"><g transform="translate(34.898529, 29.770153)"><g><path d="M 6.625 -2.78125 C 6.957031 -2.78125 7.265625 -2.8125 7.546875 -2.875 C 7.828125 -2.945312 8.125 -3.035156 8.4375 -3.140625 L 8.4375 -0.40625 C 8.03125 -0.226562 7.597656 -0.0859375 7.140625 0.015625 C 6.679688 0.128906 6.097656 0.1875 5.390625 0.1875 C 4.679688 0.1875 4.054688 0.078125 3.515625 -0.140625 C 2.984375 -0.359375 2.566406 -0.738281 2.265625 -1.28125 C 1.972656 -1.832031 1.828125 -2.597656 1.828125 -3.578125 L 1.828125 -8.0625 L 0.515625 -8.0625 L 0.515625 -9.59375 L 2.171875 -10.765625 L 3.140625 -13.046875 L 5.609375 -13.046875 L 5.609375 -10.875 L 8.265625 -10.875 L 8.265625 -8.0625 L 5.609375 -8.0625 L 5.609375 -3.828125 C 5.609375 -3.472656 5.695312 -3.207031 5.875 -3.03125 C 6.050781 -2.863281 6.300781 -2.78125 6.625 -2.78125 Z M 6.625 -2.78125 "/></g></g></g><g fill="#000000" fill-opacity="1"><g transform="translate(43.937838, 29.770153)"><g><path d="M 13.640625 -14.03125 L 9.046875 0 L 4.578125 0 L 0 -14.03125 L 4.265625 -14.03125 L 6.171875 -6.921875 C 6.242188 -6.648438 6.328125 -6.304688 6.421875 -5.890625 C 6.515625 -5.472656 6.597656 -5.054688 6.671875 -4.640625 C 6.753906 -4.222656 6.804688 -3.882812 6.828125 -3.625 C 6.847656 -3.882812 6.894531 -4.21875 6.96875 -4.625 C 7.039062 -5.03125 7.117188 -5.441406 7.203125 -5.859375 C 7.285156 -6.273438 7.367188 -6.613281 7.453125 -6.875 L 9.390625 -14.03125 Z M 13.640625 -14.03125 "/></g></g></g><g fill="#000000" fill-opacity="1"><g transform="translate(57.57357, 29.770153)"><g><path d="M 11.6875 -5.46875 C 11.6875 -4.550781 11.5625 -3.738281 11.3125 -3.03125 C 11.0625 -2.332031 10.695312 -1.742188 10.21875 -1.265625 C 9.75 -0.785156 9.175781 -0.421875 8.5 -0.171875 C 7.832031 0.0664062 7.078125 0.1875 6.234375 0.1875 C 5.441406 0.1875 4.71875 0.0664062 4.0625 -0.171875 C 3.40625 -0.421875 2.832031 -0.785156 2.34375 -1.265625 C 1.863281 -1.742188 1.488281 -2.332031 1.21875 -3.03125 C 0.957031 -3.738281 0.828125 -4.550781 0.828125 -5.46875 C 0.828125 -6.664062 1.046875 -7.679688 1.484375 -8.515625 C 1.921875 -9.347656 2.546875 -9.976562 3.359375 -10.40625 C 4.179688 -10.84375 5.15625 -11.0625 6.28125 -11.0625 C 7.320312 -11.0625 8.25 -10.84375 9.0625 -10.40625 C 9.875 -9.976562 10.515625 -9.347656 10.984375 -8.515625 C 11.453125 -7.679688 11.6875 -6.664062 11.6875 -5.46875 Z M 4.640625 -5.46875 C 4.640625 -4.84375 4.691406 -4.316406 4.796875 -3.890625 C 4.910156 -3.460938 5.085938 -3.140625 5.328125 -2.921875 C 5.566406 -2.703125 5.878906 -2.59375 6.265625 -2.59375 C 6.660156 -2.59375 6.972656 -2.703125 7.203125 -2.921875 C 7.429688 -3.140625 7.597656 -3.460938 7.703125 -3.890625 C 7.804688 -4.316406 7.859375 -4.84375 7.859375 -5.46875 C 7.859375 -6.082031 7.804688 -6.597656 7.703125 -7.015625 C 7.597656 -7.429688 7.425781 -7.742188 7.1875 -7.953125 C 6.957031 -8.160156 6.644531 -8.265625 6.25 -8.265625 C 5.675781 -8.265625 5.265625 -8.03125 5.015625 -7.5625 C 4.765625 -7.09375 4.640625 -6.394531 4.640625 -5.46875 Z M 4.640625 -5.46875 "/></g></g></g><g fill="#000000" fill-opacity="1"><g transform="translate(70.096181, 29.770153)"><g><path d="M 5.046875 0 L 1.296875 0 L 1.296875 -14.9375 L 5.046875 -14.9375 Z M 5.046875 0 "/></g></g></g><g fill="#000000" fill-opacity="1"><g transform="translate(76.448647, 29.770153)"><g><path d="M 11.875 -10.875 L 11.875 0 L 9.046875 0 L 8.578125 -1.359375 L 8.34375 -1.359375 C 8.125 -0.992188 7.84375 -0.695312 7.5 -0.46875 C 7.15625 -0.238281 6.773438 -0.0703125 6.359375 0.03125 C 5.941406 0.132812 5.507812 0.1875 5.0625 0.1875 C 4.351562 0.1875 3.710938 0.0507812 3.140625 -0.21875 C 2.566406 -0.5 2.113281 -0.929688 1.78125 -1.515625 C 1.445312 -2.109375 1.28125 -2.867188 1.28125 -3.796875 L 1.28125 -10.875 L 5.03125 -10.875 L 5.03125 -4.9375 C 5.03125 -4.226562 5.128906 -3.691406 5.328125 -3.328125 C 5.535156 -2.960938 5.867188 -2.78125 6.328125 -2.78125 C 6.796875 -2.78125 7.160156 -2.90625 7.421875 -3.15625 C 7.679688 -3.414062 7.863281 -3.789062 7.96875 -4.28125 C 8.070312 -4.78125 8.125 -5.390625 8.125 -6.109375 L 8.125 -10.875 Z M 11.875 -10.875 "/></g></g></g><g fill="#000000" fill-opacity="1"><g transform="translate(89.614181, 29.770153)"><g><path d="M 8.09375 -11.0625 C 9.21875 -11.0625 10.132812 -10.742188 10.84375 -10.109375 C 11.550781 -9.484375 11.90625 -8.472656 11.90625 -7.078125 L 11.90625 0 L 8.15625 0 L 8.15625 -5.9375 C 8.15625 -6.65625 8.050781 -7.195312 7.84375 -7.5625 C 7.632812 -7.9375 7.300781 -8.125 6.84375 -8.125 C 6.132812 -8.125 5.65625 -7.832031 5.40625 -7.25 C 5.164062 -6.664062 5.046875 -5.835938 5.046875 -4.765625 L 5.046875 0 L 1.296875 0 L 1.296875 -10.875 L 4.125 -10.875 L 4.640625 -9.4375 L 4.78125 -9.4375 C 5.007812 -9.78125 5.28125 -10.070312 5.59375 -10.3125 C 5.914062 -10.5625 6.285156 -10.75 6.703125 -10.875 C 7.117188 -11 7.582031 -11.0625 8.09375 -11.0625 Z M 8.09375 -11.0625 "/></g></g></g><g fill="#000000" fill-opacity="1"><g transform="translate(102.779716, 29.770153)"><g><path d="M 6.625 -2.78125 C 6.957031 -2.78125 7.265625 -2.8125 7.546875 -2.875 C 7.828125 -2.945312 8.125 -3.035156 8.4375 -3.140625 L 8.4375 -0.40625 C 8.03125 -0.226562 7.597656 -0.0859375 7.140625 0.015625 C 6.679688 0.128906 6.097656 0.1875 5.390625 0.1875 C 4.679688 0.1875 4.054688 0.078125 3.515625 -0.140625 C 2.984375 -0.359375 2.566406 -0.738281 2.265625 -1.28125 C 1.972656 -1.832031 1.828125 -2.597656 1.828125 -3.578125 L 1.828125 -8.0625 L 0.515625 -8.0625 L 0.515625 -9.59375 L 2.171875 -10.765625 L 3.140625 -13.046875 L 5.609375 -13.046875 L 5.609375 -10.875 L 8.265625 -10.875 L 8.265625 -8.0625 L 5.609375 -8.0625 L 5.609375 -3.828125 C 5.609375 -3.472656 5.695312 -3.207031 5.875 -3.03125 C 6.050781 -2.863281 6.300781 -2.78125 6.625 -2.78125 Z M 6.625 -2.78125 "/></g></g></g><g fill="#000000" fill-opacity="1"><g transform="translate(111.819025, 29.770153)"><g><path d="M 6.1875 -11.0625 C 7.25 -11.0625 8.160156 -10.878906 8.921875 -10.515625 C 9.691406 -10.148438 10.285156 -9.597656 10.703125 -8.859375 C 11.117188 -8.117188 11.328125 -7.195312 11.328125 -6.09375 L 11.328125 -4.421875 L 4.609375 -4.421875 C 4.648438 -3.859375 4.863281 -3.390625 5.25 -3.015625 C 5.644531 -2.648438 6.226562 -2.46875 7 -2.46875 C 7.675781 -2.46875 8.296875 -2.535156 8.859375 -2.671875 C 9.429688 -2.804688 10.015625 -3.015625 10.609375 -3.296875 L 10.609375 -0.609375 C 10.085938 -0.328125 9.515625 -0.125 8.890625 0 C 8.273438 0.125 7.492188 0.1875 6.546875 0.1875 C 5.453125 0.1875 4.472656 -0.00390625 3.609375 -0.390625 C 2.742188 -0.785156 2.0625 -1.390625 1.5625 -2.203125 C 1.070312 -3.023438 0.828125 -4.078125 0.828125 -5.359375 C 0.828125 -6.671875 1.050781 -7.742188 1.5 -8.578125 C 1.945312 -9.421875 2.570312 -10.046875 3.375 -10.453125 C 4.1875 -10.859375 5.125 -11.0625 6.1875 -11.0625 Z M 6.328125 -8.515625 C 5.878906 -8.515625 5.503906 -8.375 5.203125 -8.09375 C 4.910156 -7.8125 4.738281 -7.375 4.6875 -6.78125 L 7.921875 -6.78125 C 7.910156 -7.101562 7.84375 -7.394531 7.71875 -7.65625 C 7.601562 -7.914062 7.425781 -8.125 7.1875 -8.28125 C 6.957031 -8.4375 6.671875 -8.515625 6.328125 -8.515625 Z M 6.328125 -8.515625 "/></g></g></g><g fill="#000000" fill-opacity="1"><g transform="translate(123.967397, 29.770153)"><g><path d="M 6.1875 -11.0625 C 7.25 -11.0625 8.160156 -10.878906 8.921875 -10.515625 C 9.691406 -10.148438 10.285156 -9.597656 10.703125 -8.859375 C 11.117188 -8.117188 11.328125 -7.195312 11.328125 -6.09375 L 11.328125 -4.421875 L 4.609375 -4.421875 C 4.648438 -3.859375 4.863281 -3.390625 5.25 -3.015625 C 5.644531 -2.648438 6.226562 -2.46875 7 -2.46875 C 7.675781 -2.46875 8.296875 -2.535156 8.859375 -2.671875 C 9.429688 -2.804688 10.015625 -3.015625 10.609375 -3.296875 L 10.609375 -0.609375 C 10.085938 -0.328125 9.515625 -0.125 8.890625 0 C 8.273438 0.125 7.492188 0.1875 6.546875 0.1875 C 5.453125 0.1875 4.472656 -0.00390625 3.609375 -0.390625 C 2.742188 -0.785156 2.0625 -1.390625 1.5625 -2.203125 C 1.070312 -3.023438 0.828125 -4.078125 0.828125 -5.359375 C 0.828125 -6.671875 1.050781 -7.742188 1.5 -8.578125 C 1.945312 -9.421875 2.570312 -10.046875 3.375 -10.453125 C 4.1875 -10.859375 5.125 -11.0625 6.1875 -11.0625 Z M 6.328125 -8.515625 C 5.878906 -8.515625 5.503906 -8.375 5.203125 -8.09375 C 4.910156 -7.8125 4.738281 -7.375 4.6875 -6.78125 L 7.921875 -6.78125 C 7.910156 -7.101562 7.84375 -7.394531 7.71875 -7.65625 C 7.601562 -7.914062 7.425781 -8.125 7.1875 -8.28125 C 6.957031 -8.4375 6.671875 -8.515625 6.328125 -8.515625 Z M 6.328125 -8.515625 "/></g></g></g><g fill="#000000" fill-opacity="1"><g transform="translate(136.115769, 29.770153)"><g><path d="M 7.859375 -11.0625 C 8.066406 -11.0625 8.28125 -11.046875 8.5 -11.015625 C 8.726562 -10.992188 8.894531 -10.972656 9 -10.953125 L 8.671875 -7.40625 C 8.546875 -7.4375 8.382812 -7.460938 8.1875 -7.484375 C 8 -7.515625 7.734375 -7.53125 7.390625 -7.53125 C 7.148438 -7.53125 6.894531 -7.503906 6.625 -7.453125 C 6.363281 -7.410156 6.113281 -7.316406 5.875 -7.171875 C 5.632812 -7.023438 5.4375 -6.804688 5.28125 -6.515625 C 5.125 -6.222656 5.046875 -5.832031 5.046875 -5.34375 L 5.046875 0 L 1.296875 0 L 1.296875 -10.875 L 4.09375 -10.875 L 4.671875 -9.140625 L 4.859375 -9.140625 C 5.054688 -9.492188 5.304688 -9.816406 5.609375 -10.109375 C 5.921875 -10.398438 6.269531 -10.628906 6.65625 -10.796875 C 7.050781 -10.972656 7.453125 -11.0625 7.859375 -11.0625 Z M 7.859375 -11.0625 "/></g></g></g></svg>